<svg id="Layer_1" data-name="Layer 1" xmlns="http://www.w3.org/2000/svg" xmlns:xlink="http://www.w3.org/1999/xlink" viewBox="0 0 81.36 11.23"><defs><style>.cls-1{fill:url(#linear-gradient);}.cls-2{fill:url(#linear-gradient-3);}</style><linearGradient id="linear-gradient" x1="58.97" y1="93.25" x2="73.16" y2="93.25" gradientUnits="userSpaceOnUse"><stop offset="0" stop-color="#1b1464"/><stop offset="1" stop-color="#93278f"/></linearGradient><linearGradient id="linear-gradient-3" x1="74.33" y1="92.66" x2="140.33" y2="92.66" gradientUnits="userSpaceOnUse"><stop offset="0.22" stop-color="#1b1464" stop-opacity="0.9"/><stop offset="0.52" stop-color="#93278f"/></linearGradient></defs><path class="cls-1" d="M60.9,94.69a.47.47,0,0,1,.2-.38.43.43,0,0,0-.21-.07.68.68,0,0,0-.55.33,1.35,1.35,0,0,0-.23.78,1.6,1.6,0,0,0,.61,1.29,2.34,2.34,0,0,0,1.56.51,2.08,2.08,0,0,0,2.38-1.93,18.48,18.48,0,0,0,.1-2.23V90.28c0-.7-.24-1-.73-1a1.15,1.15,0,0,0-.3,0,2,2,0,0,1-.38,0,.46.46,0,0,1-.32-.13.51.51,0,0,1-.13-.34c0-.33.21-.5.63-.5l.2,0,.75.1a6.31,6.31,0,0,0,.88,0,7,7,0,0,0,1-.07l.66-.08a.75.75,0,0,1,.2,0c.41,0,.62.17.62.5s-.15.47-.45.47a2.13,2.13,0,0,1-.39,0,1.05,1.05,0,0,0-.3,0q-.72,0-.72,1V93a15.44,15.44,0,0,1-.17,2.85A2.69,2.69,0,0,1,65.13,97a3.58,3.58,0,0,1-2.81,1.15,3.69,3.69,0,0,1-2.42-.77,2.48,2.48,0,0,1-.93-2,2.12,2.12,0,0,1,.58-1.52A1.84,1.84,0,0,1,61,93.26a1.54,1.54,0,0,1,1,.32,1,1,0,0,1,.38.83.93.93,0,0,1-.23.62.7.7,0,0,1-.54.26.69.69,0,0,1-.47-.18A.54.54,0,0,1,60.9,94.69Z" transform="translate(-58.97 -87.04)"/><path class="cls-1" d="M70.87,95.83l-.36-.93a.33.33,0,0,0-.12-.19.51.51,0,0,0-.26,0H68.37a.39.39,0,0,0-.28.07,1.06,1.06,0,0,0-.19.36l-.29.73a.71.71,0,0,0,0,.2q0,.3.39.3l.28,0,.27,0c.28,0,.41.11.41.33s-.15.32-.45.32l-.21,0-.5,0-.45,0-.49,0-.41,0-.41,0c-.26,0-.39-.11-.39-.32s.13-.33.38-.33a.21.21,0,0,1,.12,0h.13a.45.45,0,0,0,.4-.2,2.07,2.07,0,0,0,.2-.45l1.84-4.78a.62.62,0,0,1,.63-.4.58.58,0,0,1,.6.39l1.77,4.71a1.89,1.89,0,0,0,.31.59.54.54,0,0,0,.4.14h.11l.28,0c.25,0,.38.11.38.32s-.13.33-.38.33l-.29,0a8.1,8.1,0,0,0-.93-.07c-.24,0-.64,0-1.18.07l-.32,0c-.27,0-.4-.11-.4-.32s.15-.33.44-.33l.26,0,.26,0c.22,0,.33-.08.33-.26A1.92,1.92,0,0,0,70.87,95.83Zm-.71-1.94-.89-2.62-.91,2.62a.14.14,0,0,0,0,.07c0,.06,0,.08.14.08h1.58c.08,0,.12,0,.12-.07S70.17,93.93,70.16,93.89Z" transform="translate(-58.97 -87.04)"/><path class="cls-2" d="M76.51,94.35a.53.53,0,0,1,.22-.43.6.6,0,0,0-.24-.08.73.73,0,0,0-.61.37,1.5,1.5,0,0,0-.27.88,1.81,1.81,0,0,0,.69,1.45,2.61,2.61,0,0,0,1.76.58,2.35,2.35,0,0,0,2.69-2.18,22.94,22.94,0,0,0,.11-2.51V89.38c0-.79-.28-1.19-.82-1.19a1.4,1.4,0,0,0-.34,0,2.69,2.69,0,0,1-.44,0,.45.45,0,0,1-.35-.15.52.52,0,0,1-.15-.38c0-.37.24-.56.71-.56l.22,0,.85.11a8,8,0,0,0,1,.07,7.59,7.59,0,0,0,1.09-.09l.73-.09.23,0c.47,0,.7.19.7.56a.46.46,0,0,1-.51.53,2.83,2.83,0,0,1-.43,0,1.46,1.46,0,0,0-.34,0c-.54,0-.81.4-.81,1.19v3.05a16.81,16.81,0,0,1-.2,3.22A3,3,0,0,1,81.27,97a4,4,0,0,1-3.16,1.29,4.14,4.14,0,0,1-2.73-.87,2.79,2.79,0,0,1-1-2.25A2.45,2.45,0,0,1,75,93.43a2.13,2.13,0,0,1,1.61-.7,1.69,1.69,0,0,1,1.12.36,1.2,1.2,0,0,1,.43.94,1,1,0,0,1-.26.7.79.79,0,0,1-.61.29.75.75,0,0,1-.53-.2A.58.58,0,0,1,76.51,94.35Z" transform="translate(-58.97 -87.04)"/><path class="cls-2" d="M91.1,97.52V97a2.9,2.9,0,0,1-2.51,1.17A2.86,2.86,0,0,1,86,97a2.45,2.45,0,0,1-.35-1.2c0-.22,0-.69,0-1.4V93.09c0-1.46-.15-2.19-.46-2.19a2,2,0,0,0-.31,0,2.14,2.14,0,0,1-.32,0c-.38,0-.57-.17-.57-.52s.23-.5.69-.5a3.38,3.38,0,0,1,.47,0,3.5,3.5,0,0,0,.47,0c.1,0,.26,0,.5,0l.27,0c.33,0,.5.2.5.61V91.9l0,1.19v1a6.37,6.37,0,0,0,.22,2,1.65,1.65,0,0,0,1.76,1A2.33,2.33,0,0,0,90,96.82a1.65,1.65,0,0,0,.73-.82A7,7,0,0,0,91,93.63V91.71c0-.51-.19-.77-.42-.77h-.48c-.37,0-.56-.16-.56-.48s.21-.54.63-.54l.44,0L91,90l.38,0,.39,0q.48,0,.48.51a1.19,1.19,0,0,1,0,.36,15.48,15.48,0,0,0-.08,1.79v2.47c0,.65,0,1,0,1.09,0,.57.2.85.45.85l.32,0,.32,0c.36,0,.54.17.54.52s-.22.53-.67.53l-.42,0-.49,0-.34,0a1.47,1.47,0,0,1-.33,0A.4.4,0,0,1,91.1,97.52Z" transform="translate(-58.97 -87.04)"/><path class="cls-2" d="M97,91.23v5c0,.54.16.81.44.81a2,2,0,0,0,.4-.07l.26,0a.47.47,0,0,1,.53.53c0,.35-.22.52-.65.52-.17,0-.44,0-.82-.06s-.65-.07-.86-.07-.42,0-.76.07a7.15,7.15,0,0,1-.75.06h-.08c-.45,0-.67-.19-.67-.56s.18-.49.55-.49h.11l.15,0,.47.07a.33.33,0,0,0,.36-.25,6.52,6.52,0,0,0,.09-1.29V89a5.59,5.59,0,0,0,0-.64.45.45,0,0,0-.45-.37l-.42.06-.29,0c-.36,0-.54-.17-.54-.52s.21-.53.64-.53l.3,0,.39,0a2.45,2.45,0,0,0,.43,0,2.79,2.79,0,0,0,.48-.06,3.89,3.89,0,0,1,.48,0c.25,0,.37.15.37.46a1.25,1.25,0,0,1,0,.24C97,88.56,97,89.73,97,91.23Z" transform="translate(-58.97 -87.04)"/><path class="cls-2" d="M102,93.28v2.08c0,.53,0,.85,0,.94,0,.48.2.72.43.72a2.16,2.16,0,0,0,.4-.07l.24,0c.41,0,.61.17.61.52a.5.5,0,0,1-.2.38A.81.81,0,0,1,103,98a5.63,5.63,0,0,1-.77-.07,5.88,5.88,0,0,0-.78-.07,8,8,0,0,0-.93.06,6.7,6.7,0,0,1-.84.08c-.43,0-.64-.18-.64-.53s.18-.52.55-.52a2.31,2.31,0,0,1,.38,0l.38,0c.25,0,.41-.34.46-1V91.89c-.05-.68-.21-1-.48-1a1.48,1.48,0,0,0-.36.06,2.36,2.36,0,0,1-.35,0c-.39,0-.58-.17-.58-.51s.23-.54.7-.54h.43c.35,0,.56.07.66.07l.39,0a2.51,2.51,0,0,1,.39,0c.31,0,.47.2.47.62,0,0,0,.11,0,.19s0,.15,0,.19,0,.42,0,1S102,92.82,102,93.28Zm-.83-4.19a.86.86,0,0,1-.63-.27.88.88,0,0,1,0-1.25.89.89,0,0,1,.63-.26.86.86,0,0,1,.63.26.9.9,0,0,1-.63,1.52Z" transform="translate(-58.97 -87.04)"/><path class="cls-2" d="M111.63,93.2a2,2,0,0,1-.08.74c-.06.09-.21.14-.47.14H106a.41.41,0,0,0-.27.06s-.07.09-.07.18a2.92,2.92,0,0,0,.72,2,2.31,2.31,0,0,0,1.8.8,2.27,2.27,0,0,0,1.29-.38,1.69,1.69,0,0,0,.76-1l.15-.46a.5.5,0,0,1,.53-.38.53.53,0,0,1,.59.61,2.31,2.31,0,0,1-1,1.84,3.86,3.86,0,0,1-2.4.81,3.42,3.42,0,0,1-2.68-1.13,4.42,4.42,0,0,1-1-3,4.64,4.64,0,0,1,1.06-3.17,3.46,3.46,0,0,1,2.75-1.21,3.31,3.31,0,0,1,2.48,1A3.52,3.52,0,0,1,111.63,93.2Zm-5.81-.4c0,.15.12.22.35.22H110c.22,0,.34-.07.34-.22a2,2,0,0,0-.65-1.47,2.07,2.07,0,0,0-1.51-.63,2.43,2.43,0,0,0-1.63.65A1.89,1.89,0,0,0,105.82,92.8Z" transform="translate(-58.97 -87.04)"/><path class="cls-2" d="M117.26,95.71v-1q0-.66.57-.66c.38,0,.56.25.56.74A4.75,4.75,0,0,1,118,97.2a2.19,2.19,0,0,1-2,.93,2,2,0,0,1-1.81-.82,3.83,3.83,0,0,1-.4-2V91.46c0-.23-.1-.34-.31-.34h-.52a.6.6,0,0,1-.43-.17.54.54,0,0,1-.18-.41.58.58,0,0,1,.17-.4.53.53,0,0,1,.38-.17h.62c.18,0,.27-.1.27-.31V88c0-.41.21-.61.63-.61s.57.2.57.61v1.71c0,.16.1.24.29.24H117c.4,0,.6.18.6.56s-.21.59-.65.59h-1.76c-.15,0-.23.11-.23.34v3.93c0,1.12.38,1.68,1.12,1.68S117.23,96.62,117.26,95.71Z" transform="translate(-58.97 -87.04)"/><path class="cls-2" d="M131,96.11l-.57-1.57a.73.73,0,0,0-.2-.32,1,1,0,0,0-.43-.06h-2.84a.67.67,0,0,0-.44.11,2.06,2.06,0,0,0-.32.61l-.46,1.23a1.06,1.06,0,0,0-.06.34c0,.34.2.51.62.51l.46,0,.44,0c.43,0,.65.18.65.56s-.24.52-.72.52l-.35,0-.8-.09-.74,0-.78,0-.67.08c-.3,0-.52,0-.66,0-.41,0-.62-.17-.62-.52s.2-.56.61-.56a.29.29,0,0,1,.19.06h.21a.73.73,0,0,0,.65-.34,3.35,3.35,0,0,0,.32-.75l3-8.08a1,1,0,0,1,1-.67.94.94,0,0,1,1,.67l2.87,7.94a3.15,3.15,0,0,0,.49,1,.83.83,0,0,0,.64.24l.19,0,.45,0c.41,0,.61.17.61.52s-.2.56-.61.56l-.46,0c-.67-.07-1.18-.11-1.51-.11s-1,0-1.92.11l-.51,0c-.43,0-.64-.18-.64-.54s.24-.54.71-.54l.42,0,.42,0c.36,0,.53-.15.53-.43A1.9,1.9,0,0,0,131,96.11Zm-1.15-3.26-1.44-4.42-1.47,4.42a.62.62,0,0,0,0,.11c0,.1.08.14.24.14h2.54c.13,0,.19,0,.19-.12A.45.45,0,0,0,129.8,92.85Z" transform="translate(-58.97 -87.04)"/><path class="cls-2" d="M136.91,89.38c0-.79-.28-1.19-.82-1.19a1.46,1.46,0,0,0-.34,0,2.58,2.58,0,0,1-.43,0,.47.47,0,0,1-.35-.15.51.51,0,0,1-.14-.38c0-.37.23-.56.7-.56l.22,0,.85.11a8,8,0,0,0,1,.07,7.26,7.26,0,0,0,1.09-.09l.72-.09.22,0c.47,0,.71.19.71.56a.56.56,0,0,1-.14.38.49.49,0,0,1-.36.15,3,3,0,0,1-.43,0,1.37,1.37,0,0,0-.33,0c-.55,0-.82.4-.82,1.19v6.41c0,.8.27,1.2.82,1.2l.33,0,.43,0a.45.45,0,0,1,.5.51c0,.39-.24.58-.71.58h-.11l-.11,0-.83-.13a6.19,6.19,0,0,0-.88-.06,8.51,8.51,0,0,0-1.2.08l-.74.11-.11,0h-.13c-.46,0-.68-.19-.68-.58s.16-.51.49-.51l.43,0a1,1,0,0,0,.34,0c.54,0,.82-.4.82-1.2Z" transform="translate(-58.97 -87.04)"/></svg>